<?xml version="1.0" encoding="utf-8"?>
<svg version="1.1" xmlns:xlink="http://www.w3.org/1999/xlink" width="332px" height="358px" xmlns="http://www.w3.org/2000/svg">
  <defs>
    <mask fill="white" id="clip13">
      <path d="M 0 350  L 0 8  L 40.0000000068797 8  L 46.5 0.498575498575491  L 54.5000014517654 8  L 324 8  L 324 350  L 47.9999984004115 350  L 39.5000000001379 350  L 29.9999999260722 350  L 0 350  Z " fill-rule="evenodd" />
    </mask>
    <filter x="175px" y="819px" width="332px" height="358px" filterUnits="userSpaceOnUse" id="filter14">
      <feOffset dx="0" dy="2" in="SourceAlpha" result="shadowOffsetInner" />
      <feGaussianBlur stdDeviation="2" in="shadowOffsetInner" result="shadowGaussian" />
      <feComposite in2="shadowGaussian" operator="atop" in="SourceAlpha" result="shadowComposite" />
      <feColorMatrix type="matrix" values="0 0 0 0 0  0 0 0 0 0  0 0 0 0 0  0 0 0 0.117647058823529 0  " in="shadowComposite" />
    </filter>
    <g id="widget15">
      <path d="M 0 350  L 0 8  L 40.0000000068797 8  L 46.5 0.498575498575491  L 54.5000014517654 8  L 324 8  L 324 350  L 47.9999984004115 350  L 39.5000000001379 350  L 29.9999999260722 350  L 0 350  Z " fill-rule="nonzero" fill="#ffffff" stroke="none" transform="matrix(1 0 0 1 179 821 )" />
      <path d="M 0 350  L 0 8  L 40.0000000068797 8  L 46.5 0.498575498575491  L 54.5000014517654 8  L 324 8  L 324 350  L 47.9999984004115 350  L 39.5000000001379 350  L 29.9999999260722 350  L 0 350  Z " stroke-width="2" stroke="#eeeeee" fill="none" transform="matrix(1 0 0 1 179 821 )" mask="url(#clip13)" />
    </g>
  </defs>
  <g transform="matrix(1 0 0 1 -175 -819 )">
    <use xlink:href="#widget15" filter="url(#filter14)" />
    <use xlink:href="#widget15" />
  </g>
</svg>