<?xml version="1.0" encoding="utf-8"?>
<svg version="1.1" xmlns:xlink="http://www.w3.org/1999/xlink" width="10px" height="8px" xmlns="http://www.w3.org/2000/svg">
  <g transform="matrix(1 0 0 1 -2 -6 )">
    <path d="M 3.98729710742188 6.90966831640625  C 3.85885674609375 7.03810867773437  3.6908962578125 7.1072688828125  3.51305574804688 7.1072688828125  C 3.33521523828125 7.1072688828125  3.16725476367188 7.03810869140625  3.03881440234375 6.90966831640625  C 3.02893438085938 6.89978829492187  3.02893438085938 6.88990825976563  3.01905434570313 6.88990825976563  L 0.618207484375 3.9357798125  C 0.5095271796875 3.80733945117187  0.529287236328125 3.60973888476563  0.667607619140625 3.50105858007812  C 0.79604798046875 3.39237827539062  0.993648546875 3.41213833203125  1.10232886523437 3.55045871484375  L 3.48341566992188 6.48482710546875  C 3.5031757265625 6.50458716210937  3.52293578320313 6.50458716210937  3.55257586132813 6.4749470703125  L 8.80875088671875 0.882851095703124  C 8.9273112265625 0.754410734374999  9.12491179296875 0.754410734374999  9.24347211914063 0.872971060546874  C 9.37191248046875 0.991531400390625  9.37191248046875 1.18913196679687  9.25335215429688 1.30769230664062  L 3.98729710742188 6.90966831640625  Z " fill-rule="nonzero" fill="#ffffff" stroke="none" transform="matrix(1 0 0 1 2 6 )" />
  </g>
</svg>