<?xml version="1.0" encoding="utf-8"?>
<svg version="1.1" xmlns:xlink="http://www.w3.org/1999/xlink" width="32px" height="27px" xmlns="http://www.w3.org/2000/svg">
  <g transform="matrix(1 0 0 1 -436 -10 )">
    <path d="M 8.36682926829268 10.3846153846154  L 3.32487804878049 10.3846153846154  L 13.049756097561 21.1748798076923  L 8.36682926829268 10.3846153846154  Z M 10.5521951219512 10.3846153846154  L 16 22.9110576923077  L 21.4478048780488 10.3846153846154  L 10.5521951219512 10.3846153846154  Z M 3.01268292682927 8.30769230769231  L 8.41365853658537 8.30769230769231  L 11.5980487804878 2.07692307692308  L 7.50829268292683 2.07692307692308  L 3.01268292682927 8.30769230769231  Z M 23.6331707317073 10.3846153846154  L 18.950243902439 21.1748798076923  L 28.6751219512195 10.3846153846154  L 23.6331707317073 10.3846153846154  Z M 13.8614634146341 2.07692307692308  L 10.6770731707317 8.30769230769231  L 21.3229268292683 8.30769230769231  L 18.1385365853659 2.07692307692308  L 13.8614634146341 2.07692307692308  Z M 20.4019512195122 2.07692307692308  L 23.5863414634146 8.30769230769231  L 28.9873170731707 8.30769230769231  L 24.4917073170732 2.07692307692308  L 20.4019512195122 2.07692307692308  Z M 24.9912195121951 0  C 25.3346341463415 0  25.6 0.140624999999998  25.7873170731707 0.421875  L 31.7814634146341 8.72956730769231  C 31.9271544715447 8.92427884615385  31.9947967479675 9.14873798076923  31.9843902439024 9.40294471153846  C 31.9739837398374 9.65715144230769  31.8855284552846 9.87620192307692  31.7190243902439 10.0600961538462  L 16.7336585365854 26.6754807692308  C 16.5463414634146 26.8918269230769  16.3017886178862 27  16 27  C 15.6982113821138 27  15.4536585365854 26.8918269230769  15.2663414634146 26.6754807692308  L 0.280975609756098 10.0600961538462  C 0.114471544715447 9.87620192307692  0.0260162601626016 9.65715144230769  0.015609756097561 9.40294471153846  C 0.00520325203252032 9.14873798076923  0.0728455284552845 8.92427884615385  0.218536585365854 8.72956730769231  L 6.21268292682927 0.421875  C 6.4 0.140624999999998  6.66536585365854 0  7.00878048780488 0  L 24.9912195121951 0  Z " fill-rule="nonzero" fill="#000000" stroke="none" transform="matrix(1 0 0 1 436 10 )" />
  </g>
</svg>